<svg xmlns="http://www.w3.org/2000/svg" width="1600" height="1200" viewBox="0 0 1600 1200"><defs><filter id="blur" x="-50%" y="-50%" width="200%" height="200%"><feGaussianBlur stdDeviation="18"/></filter></defs><rect width="1600" height="1200" fill="#E8E1D5"/><circle cx="800" cy="1390" r="360" fill="none" stroke="#1B1B1A" stroke-width="32.4"/><circle cx="800" cy="1390" r="324" fill="none" stroke="#3A3A38" stroke-width="5"/><line x1="800" y1="1390" x2="1116.8" y2="1390.0" stroke="#6C6D69" stroke-width="2" opacity=".55"/><line x1="800" y1="1390" x2="1097.7" y2="1498.4" stroke="#6C6D69" stroke-width="2" opacity=".55"/><line x1="800" y1="1390" x2="1042.7" y2="1593.6" stroke="#6C6D69" stroke-width="2" opacity=".55"/><line x1="800" y1="1390" x2="958.4" y2="1664.4" stroke="#6C6D69" stroke-width="2" opacity=".55"/><line x1="800" y1="1390" x2="855.0" y2="1702.0" stroke="#6C6D69" stroke-width="2" opacity=".55"/><line x1="800" y1="1390" x2="745.0" y2="1702.0" stroke="#6C6D69" stroke-width="2" opacity=".55"/><line x1="800" y1="1390" x2="641.6" y2="1664.4" stroke="#6C6D69" stroke-width="2" opacity=".55"/><line x1="800" y1="1390" x2="557.3" y2="1593.6" stroke="#6C6D69" stroke-width="2" opacity=".55"/><line x1="800" y1="1390" x2="502.3" y2="1498.4" stroke="#6C6D69" stroke-width="2" opacity=".55"/><line x1="800" y1="1390" x2="483.2" y2="1390.0" stroke="#6C6D69" stroke-width="2" opacity=".55"/><line x1="800" y1="1390" x2="502.3" y2="1281.6" stroke="#6C6D69" stroke-width="2" opacity=".55"/><line x1="800" y1="1390" x2="557.3" y2="1186.4" stroke="#6C6D69" stroke-width="2" opacity=".55"/><line x1="800" y1="1390" x2="641.6" y2="1115.6" stroke="#6C6D69" stroke-width="2" opacity=".55"/><line x1="800" y1="1390" x2="745.0" y2="1078.0" stroke="#6C6D69" stroke-width="2" opacity=".55"/><line x1="800" y1="1390" x2="855.0" y2="1078.0" stroke="#6C6D69" stroke-width="2" opacity=".55"/><line x1="800" y1="1390" x2="958.4" y2="1115.6" stroke="#6C6D69" stroke-width="2" opacity=".55"/><line x1="800" y1="1390" x2="1042.7" y2="1186.4" stroke="#6C6D69" stroke-width="2" opacity=".55"/><line x1="800" y1="1390" x2="1097.7" y2="1281.6" stroke="#6C6D69" stroke-width="2" opacity=".55"/><circle cx="800" cy="1390" r="32.4" fill="#2A2A29"/><path d="M290.0,990.0 L1130.0,990.0 L1310.0,867.6 L470.0,867.6 Z" fill="#2A2A29"/><rect x="290" y="990" width="840" height="12" fill="#1E1E1D"/><path d="M398.4,1002 L800,1390 M1054.4,1002 L800,1390" stroke="#2A2A29" stroke-width="12" stroke-linecap="round"/><path d="M300.0,590.0 L1120.0,590.0 L1300.0,467.6 L480.0,467.6 Z" fill="#4C4E4A"/><path d="M1120.0,590.0 L1300.0,467.6 L1300.0,867.6 L1120.0,990.0 Z" fill="#61635F"/><g transform="matrix(0.5,-0.34,0,1,1120,590)"><rect x="51.4" y="75.2" width="65.3" height="57.6" rx="5" fill="#30312F"/><rect x="147.4" y="75.2" width="65.3" height="57.6" rx="5" fill="#30312F"/><rect x="243.4" y="75.2" width="65.3" height="57.6" rx="5" fill="#30312F"/><rect x="51.4" y="171.2" width="65.3" height="57.6" rx="5" fill="#30312F"/><rect x="147.4" y="171.2" width="65.3" height="57.6" rx="5" fill="#30312F"/><rect x="243.4" y="171.2" width="65.3" height="57.6" rx="5" fill="#30312F"/><rect x="51.4" y="267.2" width="65.3" height="57.6" rx="5" fill="#30312F"/><rect x="147.4" y="267.2" width="65.3" height="57.6" rx="5" fill="#30312F"/><rect x="243.4" y="267.2" width="65.3" height="57.6" rx="5" fill="#30312F"/></g><path d="M300.0,590.0 L1120.0,590.0 L1120.0,990.0 L300.0,990.0 Z" fill="#72746F"/><rect x="403.0" y="665.2" width="89.2" height="57.6" rx="6" fill="#30312F"/><rect x="534.2" y="665.2" width="89.2" height="57.6" rx="6" fill="#30312F"/><rect x="665.4" y="665.2" width="89.2" height="57.6" rx="6" fill="#30312F"/><rect x="796.6" y="665.2" width="89.2" height="57.6" rx="6" fill="#30312F"/><rect x="927.8" y="665.2" width="89.2" height="57.6" rx="6" fill="#30312F"/><rect x="403.0" y="761.2" width="89.2" height="57.6" rx="6" fill="#30312F"/><rect x="534.2" y="761.2" width="89.2" height="57.6" rx="6" fill="#30312F"/><rect x="665.4" y="761.2" width="89.2" height="57.6" rx="6" fill="#30312F"/><rect x="796.6" y="761.2" width="89.2" height="57.6" rx="6" fill="#30312F"/><rect x="927.8" y="761.2" width="89.2" height="57.6" rx="6" fill="#30312F"/><rect x="403.0" y="857.2" width="89.2" height="57.6" rx="6" fill="#30312F"/><rect x="534.2" y="857.2" width="89.2" height="57.6" rx="6" fill="#30312F"/><rect x="665.4" y="857.2" width="89.2" height="57.6" rx="6" fill="#30312F"/><rect x="796.6" y="857.2" width="89.2" height="57.6" rx="6" fill="#30312F"/><rect x="927.8" y="857.2" width="89.2" height="57.6" rx="6" fill="#30312F"/><rect x="300" y="590" width="820" height="10" fill="#7E807B"/><path d="M300.0,590.0 L1120.0,590.0 L1300.0,467.6 L480.0,467.6 Z" fill="none" stroke="#838580" stroke-width="5" stroke-linejoin="round"/><rect x="316" y="586" width="26" height="38" rx="5" fill="#B3B5AF"/><rect x="1078" y="586" width="26" height="38" rx="5" fill="#B3B5AF"/><ellipse cx="800" cy="560" rx="410" ry="30" fill="#000" opacity="0.14" filter="url(#blur)"/><path d="M286,454 L286,584" stroke="#8E8F8B" stroke-width="3" stroke-dasharray="4 10" stroke-linecap="round"/><path d="M274,564 l12,14 l12,-14" stroke="#8E8F8B" stroke-width="3" fill="none" stroke-linecap="round" stroke-linejoin="round"/><path d="M1134,454 L1134,584" stroke="#8E8F8B" stroke-width="3" stroke-dasharray="4 10" stroke-linecap="round"/><path d="M1122,564 l12,14 l12,-14" stroke="#8E8F8B" stroke-width="3" fill="none" stroke-linecap="round" stroke-linejoin="round"/><path d="M1126.0,350.1 L1318.0,219.5 L1318.0,273.5 L1126.0,404.1 Z" fill="#0D0D0D"/><path d="M282.0,350.1 L1126.0,350.1 L1318.0,219.5 L474.0,219.5 Z" fill="#1F1F1E"/><path d="M333.0,334.4 L1121.0,334.4 L1267.0,235.2 L479.0,235.2 Z" fill="none" stroke="#2A2A29" stroke-width="3"/><path d="M282.0,350.1 L1126.0,350.1 L1126.0,404.1 L282.0,404.1 Z" fill="#151515"/><path d="M282,351.58 L1126,351.58 L1318,221.01999999999998" stroke="#3A3A38" stroke-width="3" fill="none"/><rect x="644" y="360.34" width="120" height="33.48" rx="5" fill="#0A0A0A" stroke="#2C2C2B" stroke-width="2"/><rect x="656" y="364.34" width="24" height="25.479999999999997" rx="3" fill="#2B2B2A"/><rect x="656" y="375.58" width="24" height="3" fill="#6E6F6B"/><rect x="692" y="364.34" width="24" height="25.479999999999997" rx="3" fill="#2B2B2A"/><rect x="692" y="375.58" width="24" height="3" fill="#6E6F6B"/><rect x="728" y="364.34" width="24" height="25.479999999999997" rx="3" fill="#2B2B2A"/><rect x="728" y="375.58" width="24" height="3" fill="#6E6F6B"/><path d="M497.8,350.1 L538.8,350.1 L730.8,219.5 L689.8,219.5 Z" fill="#A3A59F"/><rect x="497.82000000000005" y="350.08" width="41" height="54" fill="#868882"/><rect x="493.82000000000005" y="366.28" width="49" height="21.6" rx="3" fill="none" stroke="#B3B5AF" stroke-width="3"/><path d="M869.2,350.1 L910.2,350.1 L1102.2,219.5 L1061.2,219.5 Z" fill="#A3A59F"/><rect x="869.18" y="350.08" width="41" height="54" fill="#868882"/><rect x="865.18" y="366.28" width="49" height="21.6" rx="3" fill="none" stroke="#B3B5AF" stroke-width="3"/></svg>