<svg xmlns="http://www.w3.org/2000/svg" width="1200" height="1200" viewBox="0 0 1200 1200"><defs><filter id="blur" x="-50%" y="-50%" width="200%" height="200%"><feGaussianBlur stdDeviation="18"/></filter></defs><rect width="1200" height="1200" fill="#E8E1D5"/><circle cx="620" cy="1130" r="280" fill="none" stroke="#1B1B1A" stroke-width="25.2"/><circle cx="620" cy="1130" r="252" fill="none" stroke="#3A3A38" stroke-width="5"/><line x1="620" y1="1130" x2="866.4" y2="1130.0" stroke="#6C6D69" stroke-width="2" opacity=".55"/><line x1="620" y1="1130" x2="851.5" y2="1214.3" stroke="#6C6D69" stroke-width="2" opacity=".55"/><line x1="620" y1="1130" x2="808.8" y2="1288.4" stroke="#6C6D69" stroke-width="2" opacity=".55"/><line x1="620" y1="1130" x2="743.2" y2="1343.4" stroke="#6C6D69" stroke-width="2" opacity=".55"/><line x1="620" y1="1130" x2="662.8" y2="1372.7" stroke="#6C6D69" stroke-width="2" opacity=".55"/><line x1="620" y1="1130" x2="577.2" y2="1372.7" stroke="#6C6D69" stroke-width="2" opacity=".55"/><line x1="620" y1="1130" x2="496.8" y2="1343.4" stroke="#6C6D69" stroke-width="2" opacity=".55"/><line x1="620" y1="1130" x2="431.2" y2="1288.4" stroke="#6C6D69" stroke-width="2" opacity=".55"/><line x1="620" y1="1130" x2="388.5" y2="1214.3" stroke="#6C6D69" stroke-width="2" opacity=".55"/><line x1="620" y1="1130" x2="373.6" y2="1130.0" stroke="#6C6D69" stroke-width="2" opacity=".55"/><line x1="620" y1="1130" x2="388.5" y2="1045.7" stroke="#6C6D69" stroke-width="2" opacity=".55"/><line x1="620" y1="1130" x2="431.2" y2="971.6" stroke="#6C6D69" stroke-width="2" opacity=".55"/><line x1="620" y1="1130" x2="496.8" y2="916.6" stroke="#6C6D69" stroke-width="2" opacity=".55"/><line x1="620" y1="1130" x2="577.2" y2="887.3" stroke="#6C6D69" stroke-width="2" opacity=".55"/><line x1="620" y1="1130" x2="662.8" y2="887.3" stroke="#6C6D69" stroke-width="2" opacity=".55"/><line x1="620" y1="1130" x2="743.2" y2="916.6" stroke="#6C6D69" stroke-width="2" opacity=".55"/><line x1="620" y1="1130" x2="808.8" y2="971.6" stroke="#6C6D69" stroke-width="2" opacity=".55"/><line x1="620" y1="1130" x2="851.5" y2="1045.7" stroke="#6C6D69" stroke-width="2" opacity=".55"/><circle cx="620" cy="1130" r="25.2" fill="#2A2A29"/><path d="M260.0,830.0 L840.0,830.0 L975.0,738.2 L395.0,738.2 Z" fill="#2A2A29"/><rect x="260" y="830" width="580" height="12" fill="#1E1E1D"/><path d="M337.2,842 L620,1130 M785.2,842 L620,1130" stroke="#2A2A29" stroke-width="12" stroke-linecap="round"/><clipPath id="op1660"><path d="M270.0,530.0 L830.0,530.0 L965.0,438.2 L405.0,438.2 Z"/></clipPath><g clip-path="url(#op1660)"><path d="M270.0,530.0 L405.0,438.2 L405.0,738.2 L270.0,830.0 Z" fill="#3F413E"/><path d="M405.0,438.2 L965.0,438.2 L965.0,738.2 L405.0,738.2 Z" fill="#4C4E4A"/><rect x="475.3" y="494.6" width="60.9" height="43.2" rx="6" fill="#383A37"/><rect x="564.9" y="494.6" width="60.9" height="43.2" rx="6" fill="#383A37"/><rect x="654.5" y="494.6" width="60.9" height="43.2" rx="6" fill="#383A37"/><rect x="744.1" y="494.6" width="60.9" height="43.2" rx="6" fill="#383A37"/><rect x="833.7" y="494.6" width="60.9" height="43.2" rx="6" fill="#383A37"/><rect x="475.3" y="566.6" width="60.9" height="43.2" rx="6" fill="#383A37"/><rect x="564.9" y="566.6" width="60.9" height="43.2" rx="6" fill="#383A37"/><rect x="654.5" y="566.6" width="60.9" height="43.2" rx="6" fill="#383A37"/><rect x="744.1" y="566.6" width="60.9" height="43.2" rx="6" fill="#383A37"/><rect x="833.7" y="566.6" width="60.9" height="43.2" rx="6" fill="#383A37"/><rect x="475.3" y="638.6" width="60.9" height="43.2" rx="6" fill="#383A37"/><rect x="564.9" y="638.6" width="60.9" height="43.2" rx="6" fill="#383A37"/><rect x="654.5" y="638.6" width="60.9" height="43.2" rx="6" fill="#383A37"/><rect x="744.1" y="638.6" width="60.9" height="43.2" rx="6" fill="#383A37"/><rect x="833.7" y="638.6" width="60.9" height="43.2" rx="6" fill="#383A37"/></g><path d="M830.0,530.0 L965.0,438.2 L965.0,738.2 L830.0,830.0 Z" fill="#61635F"/><g transform="matrix(0.5,-0.34,0,1,830,530)"><rect x="38.5" y="56.4" width="49.0" height="43.2" rx="5" fill="#30312F"/><rect x="110.5" y="56.4" width="49.0" height="43.2" rx="5" fill="#30312F"/><rect x="182.5" y="56.4" width="49.0" height="43.2" rx="5" fill="#30312F"/><rect x="38.5" y="128.4" width="49.0" height="43.2" rx="5" fill="#30312F"/><rect x="110.5" y="128.4" width="49.0" height="43.2" rx="5" fill="#30312F"/><rect x="182.5" y="128.4" width="49.0" height="43.2" rx="5" fill="#30312F"/><rect x="38.5" y="200.4" width="49.0" height="43.2" rx="5" fill="#30312F"/><rect x="110.5" y="200.4" width="49.0" height="43.2" rx="5" fill="#30312F"/><rect x="182.5" y="200.4" width="49.0" height="43.2" rx="5" fill="#30312F"/></g><path d="M270.0,530.0 L830.0,530.0 L830.0,830.0 L270.0,830.0 Z" fill="#72746F"/><rect x="340.3" y="586.4" width="60.9" height="43.2" rx="6" fill="#30312F"/><rect x="429.9" y="586.4" width="60.9" height="43.2" rx="6" fill="#30312F"/><rect x="519.5" y="586.4" width="60.9" height="43.2" rx="6" fill="#30312F"/><rect x="609.1" y="586.4" width="60.9" height="43.2" rx="6" fill="#30312F"/><rect x="698.7" y="586.4" width="60.9" height="43.2" rx="6" fill="#30312F"/><rect x="340.3" y="658.4" width="60.9" height="43.2" rx="6" fill="#30312F"/><rect x="429.9" y="658.4" width="60.9" height="43.2" rx="6" fill="#30312F"/><rect x="519.5" y="658.4" width="60.9" height="43.2" rx="6" fill="#30312F"/><rect x="609.1" y="658.4" width="60.9" height="43.2" rx="6" fill="#30312F"/><rect x="698.7" y="658.4" width="60.9" height="43.2" rx="6" fill="#30312F"/><rect x="340.3" y="730.4" width="60.9" height="43.2" rx="6" fill="#30312F"/><rect x="429.9" y="730.4" width="60.9" height="43.2" rx="6" fill="#30312F"/><rect x="519.5" y="730.4" width="60.9" height="43.2" rx="6" fill="#30312F"/><rect x="609.1" y="730.4" width="60.9" height="43.2" rx="6" fill="#30312F"/><rect x="698.7" y="730.4" width="60.9" height="43.2" rx="6" fill="#30312F"/><rect x="270" y="530" width="560" height="10" fill="#7E807B"/><path d="M270.0,530.0 L830.0,530.0 L965.0,438.2 L405.0,438.2 Z" fill="none" stroke="#838580" stroke-width="5" stroke-linejoin="round"/></svg>